<?xml version="1.0"?>
<svg version="1.1" id="圖層_1" xmlns="http://www.w3.org/2000/svg" x="0" y="0" viewBox="0 0 100 100" xml:space="preserve"><g><path d="M81.2 52.3H18.8c-1.3 0-2.4-1.1-2.4-2.4V35c0-1.3 1.1-2.4 2.4-2.4h62.4c1.3 0 2.4 1.1 2.4 2.4v14.9c0 1.3-1.1 2.4-2.4 2.4z" fill="#f47e60"/><path d="M75.2 88H24.8c-2 0-3.6-1.6-3.6-3.6V52.1h57.7v32.2c0 2.1-1.7 3.7-3.7 3.7z" fill="#f5e6c8"/><path fill="#c33737" d="M40.1 32.6h19.8V88H40.1z"/></g><path d="M44.4 29.9H29c-3.7 0-6.6-3-6.6-6.6v-4c0-5.8 6.4-9.2 11.2-6.1l13.2 8.6c3.7 2.4 2 8.1-2.4 8.1z" fill="none" stroke="#c33737" stroke-width="5.195" stroke-miterlimit="10"/><path d="M55.2 29.9h15.4c3.7 0 6.6-3 6.6-6.6v-4c0-5.8-6.4-9.2-11.2-6.1l-13.2 8.6c-3.7 2.4-2 8.1 2.4 8.1z" fill="none" stroke="#c33737" stroke-width="5.195" stroke-miterlimit="10"/><metadata xmlns:d="https://loading.io/stock/"><d:name>gift</d:name><d:tags>present,birthday,offering,award,prize,giveaway,gift,web application</d:tags><d:license>pro</d:license><d:slug>ob8oo</d:slug></metadata></svg>